<svg width="140" height="90" viewBox="0 0 140 90" fill="none" xmlns="http://www.w3.org/2000/svg">
<path d="M0 41.6667H4.17288C5.35519 41.6667 6.39841 41.4236 7.30253 40.9375C8.20666 40.3819 8.93691 39.6875 9.49329 38.8542C10.1192 37.9514 10.5713 36.9792 10.8495 35.9375C11.1972 34.8264 11.3711 33.7153 11.3711 32.6042V15.8333C11.3711 13.2639 11.6145 11.0069 12.1013 9.0625C12.6577 7.11806 13.5618 5.48611 14.8137 4.16667C16.0656 2.77778 17.7347 1.73612 19.8212 1.04167C21.9772 0.347224 24.6547 0 27.854 0H36.304V6.77084H27.4367C24.5156 6.77084 22.4292 7.43056 21.1773 8.75C19.995 10.0694 19.4039 12.4653 19.4039 15.9375V30.3125C19.4039 34.9653 18.7084 38.4028 17.3174 40.625C15.9265 42.7778 14.3269 44.2361 12.5186 45C14.3269 45.8333 15.9265 47.3958 17.3174 49.6875C18.7084 51.9792 19.4039 55.3125 19.4039 59.6875V74.0625C19.4039 77.5347 20.0298 79.9306 21.2817 81.25C22.5335 82.5694 24.62 83.2292 27.541 83.2292H36.304V90H27.854C24.6547 90 21.9772 89.6528 19.8212 88.9583C17.7347 88.2639 16.0656 87.2222 14.8137 85.8333C13.5618 84.5139 12.6577 82.8819 12.1013 80.9375C11.6145 78.9931 11.3711 76.7361 11.3711 74.1667V57.3958C11.3711 56.3542 11.1972 55.3125 10.8495 54.2708C10.5713 53.1597 10.1192 52.1875 9.49329 51.3542C8.93691 50.4514 8.20666 49.7222 7.30253 49.1667C6.46796 48.6111 5.45951 48.3333 4.2772 48.3333H0V41.6667Z" fill="#F44D5A"/>
<path d="M88.8823 28.0208C88.8823 31.9792 87.8391 35.4861 85.7526 38.5417C83.6662 41.5278 80.8495 43.8542 77.3025 45.5208C78.3458 47.1875 79.4933 49.0972 80.7452 51.25C82.0666 53.3333 83.388 55.5903 84.7094 58.0208C86.0308 60.3819 87.3174 62.8472 88.5693 65.4167C89.8907 67.9167 91.1078 70.382 92.2206 72.8125H83.0402C80.9538 67.8125 78.6587 63.0208 76.155 58.4375C73.7208 53.8542 71.3562 50.1389 69.0611 47.2917C68.6438 47.3611 68.0179 47.3958 67.1833 47.3958C66.4183 47.3958 65.8967 47.3958 65.6185 47.3958H58.3159V72.8125H49.6572V9.27084C50.7004 8.99306 51.8828 8.75 53.2042 8.54167C54.5951 8.33334 55.9861 8.19445 57.377 8.125C58.8376 7.98611 60.2633 7.88195 61.6542 7.8125C63.0452 7.74306 64.2971 7.70834 65.4098 7.70834C73.1992 7.70834 79.0412 9.40973 82.9359 12.8125C86.9002 16.2153 88.8823 21.2847 88.8823 28.0208ZM66.1401 15.1042C64.5405 15.1042 62.9757 15.1389 61.4456 15.2083C59.9851 15.2083 58.9419 15.2778 58.3159 15.4167V40.3125H63.845C66.3487 40.3125 68.5743 40.1389 70.5216 39.7917C72.5385 39.4444 74.2424 38.8194 75.6334 37.9167C77.0939 36.9445 78.2067 35.6597 78.9717 34.0625C79.7367 32.3958 80.1192 30.2431 80.1192 27.6042C80.1192 25.1042 79.7367 23.0556 78.9717 21.4583C78.2067 19.8611 77.1982 18.6111 75.9464 17.7083C74.6945 16.7361 73.1992 16.0764 71.4605 15.7292C69.7914 15.3125 68.0179 15.1042 66.1401 15.1042Z" fill="#F1BF68"/>
<path d="M140 48.3333H135.827C134.645 48.3333 133.602 48.6111 132.697 49.1667C131.863 49.6528 131.133 50.3472 130.507 51.25C129.95 52.0833 129.498 53.0556 129.151 54.1667C128.872 55.2083 128.733 56.2847 128.733 57.3958V74.1667C128.733 76.7361 128.455 78.9931 127.899 80.9375C127.412 82.8819 126.508 84.5139 125.186 85.8333C123.934 87.2222 122.231 88.2639 120.075 88.9583C117.988 89.6528 115.345 90 112.146 90H103.696V83.2292H112.563C115.484 83.2292 117.536 82.5694 118.718 81.25C119.97 79.9306 120.596 77.5347 120.596 74.0625V59.6875C120.596 55.0347 121.292 51.6319 122.683 49.4792C124.074 47.2569 125.673 45.7639 127.481 45C125.673 44.1667 124.074 42.6042 122.683 40.3125C121.292 38.0208 120.596 34.6875 120.596 30.3125V15.9375C120.596 12.4653 119.97 10.0694 118.718 8.75C117.466 7.43056 115.38 6.77084 112.459 6.77084H103.696V0H112.146C115.345 0 117.988 0.347224 120.075 1.04167C122.231 1.73612 123.934 2.77778 125.186 4.16667C126.508 5.48611 127.412 7.11806 127.899 9.0625C128.455 11.0069 128.733 13.2639 128.733 15.8333V32.6042C128.733 33.6458 128.872 34.7222 129.151 35.8333C129.429 36.875 129.846 37.8472 130.402 38.75C131.028 39.5833 131.759 40.2778 132.593 40.8333C133.497 41.3889 134.54 41.6667 135.723 41.6667H140V48.3333Z" fill="#F44D5A"/>
</svg>
